<svg width="62" height="93" viewBox="0 0 62 93" fill="none" xmlns="http://www.w3.org/2000/svg">
<path d="M16.0632 93C24.4352 93 31.2298 86.056 31.2298 77.5V62H16.0632C7.69115 62 0.896484 68.944 0.896484 77.5C0.896484 86.056 7.69115 93 16.0632 93Z" fill="#0ACF83"/>
<path d="M0.896484 46.5C0.896484 37.944 7.69115 31 16.0632 31H31.2298V62H16.0632C7.69115 62 0.896484 55.056 0.896484 46.5Z" fill="#A259FF"/>
<path d="M0.896484 15.5C0.896484 6.944 7.69115 0 16.0632 0H31.2298V31H16.0632C7.69115 31 0.896484 24.056 0.896484 15.5Z" fill="#F24E1E"/>
<path d="M31.2298 0H46.3965C54.7685 0 61.5632 6.944 61.5632 15.5C61.5632 24.056 54.7685 31 46.3965 31H31.2298V0Z" fill="#FF7262"/>
<path d="M61.5632 46.5C61.5632 55.056 54.7685 62 46.3965 62C38.0245 62 31.2298 55.056 31.2298 46.5C31.2298 37.944 38.0245 31 46.3965 31C54.7685 31 61.5632 37.944 61.5632 46.5Z" fill="#1ABCFE"/>
</svg>
