<svg width="75" height="102" viewBox="0 0 75 102" fill="none" xmlns="http://www.w3.org/2000/svg">
<path d="M24.0337 78.8822C24.0337 78.8822 20.2123 81.149 26.7533 81.916C34.6775 82.8381 38.7275 82.7058 47.4601 81.02C47.4601 81.02 49.756 82.4884 52.9623 83.7602C33.3862 92.318 8.65772 83.2645 24.0337 78.8822Z" fill="#5382A1"/>
<path d="M21.6421 67.7149C21.6421 67.7149 17.356 70.951 23.9019 71.6416C32.3668 72.5323 39.0517 72.6052 50.6192 70.3332C50.6192 70.3332 52.2192 71.9877 54.735 72.8925C31.0663 79.952 4.70363 73.4492 21.6421 67.7149Z" fill="#5382A1"/>
<path d="M41.808 48.7713C46.6316 54.4358 40.5407 59.5331 40.5407 59.5331C40.5407 59.5331 52.7885 53.084 47.1636 45.0082C41.9102 37.4769 37.8815 33.7349 59.6912 20.8331C59.6912 20.8331 25.4571 29.5542 41.808 48.7713Z" fill="#E76F00"/>
<path d="M67.699 87.1423C67.699 87.1423 70.5269 89.519 64.5845 91.3577C53.2849 94.8492 17.5544 95.9035 7.62863 91.4968C4.06056 89.9135 10.7517 87.7163 12.8565 87.2553C15.0515 86.7698 16.3059 86.8602 16.3059 86.8602C12.3379 84.009 -9.34192 92.4587 5.29367 94.8786C45.2071 101.481 78.052 91.9056 67.699 87.1423Z" fill="#5382A1"/>
<path d="M25.872 56.1442C25.872 56.1442 7.69715 60.5474 19.4358 62.1463C24.3922 62.8232 34.2728 62.67 43.4762 61.8835C50.9978 61.2363 58.5503 59.8603 58.5503 59.8603C58.5503 59.8603 55.8981 61.0189 53.9793 62.3553C35.5231 67.3063 -0.130864 65.003 10.1335 59.9387C18.814 55.6587 25.872 56.1442 25.872 56.1442Z" fill="#5382A1"/>
<path d="M58.4751 74.7328C77.2367 64.7886 68.5621 55.2323 62.5073 56.5197C61.0233 56.8348 60.3616 57.1078 60.3616 57.1078C60.3616 57.1078 60.9125 56.2275 61.9648 55.8464C73.9431 51.551 83.1551 68.5151 58.0981 75.234C58.0981 75.234 58.3884 74.9695 58.4751 74.7328Z" fill="#5382A1"/>
<path d="M47.164 0C47.164 0 57.5545 10.6018 37.3091 26.9045C21.0744 39.982 33.6071 47.4385 37.3024 55.9578C27.8259 47.2367 20.8714 39.5595 25.537 32.4142C32.3851 21.9256 51.3563 16.8404 47.164 0Z" fill="#E76F00"/>
<path d="M27.7151 101.679C45.7239 102.855 73.3784 101.027 74.0334 92.3353C74.0334 92.3353 72.7744 95.6303 59.1501 98.247C43.7792 101.197 24.8214 100.853 13.5774 98.9621C13.5774 98.9621 15.8792 100.905 27.7151 101.679Z" fill="#5382A1"/>
</svg>
