<svg width="87" height="89" viewBox="0 0 87 89" fill="none" xmlns="http://www.w3.org/2000/svg">
<path d="M43.0824 0.347656C21.0496 0.347658 22.4255 10.1221 22.4255 10.1221L22.45 20.2483H43.4754V23.2887H14.0988C14.0988 23.2887 0 21.653 0 44.3954C-1.57144e-06 67.1378 12.3058 66.3313 12.3058 66.3313H19.6499V55.7779C19.6499 55.7779 19.254 43.1893 31.7592 43.1893H52.6127C52.6127 43.1893 64.3289 43.383 64.3289 31.6057V12.1322C64.3289 12.1322 66.1078 0.347656 43.0824 0.347656ZM31.489 7.15709C33.5809 7.15708 35.2716 8.88669 35.2716 11.0267C35.2716 13.1666 33.5809 14.8962 31.489 14.8962C29.3971 14.8962 27.7064 13.1666 27.7064 11.0267C27.7064 8.88669 29.3971 7.15709 31.489 7.15709Z" fill="url(#paint0_linear_109_1011)"/>
<path d="M43.7082 88.6711C65.741 88.6711 64.3652 78.8967 64.3652 78.8967L64.3406 68.7705H43.3152V65.7301H72.6918C72.6918 65.7301 86.7906 67.3658 86.7906 44.6234C86.7906 21.881 74.4849 22.6875 74.4849 22.6875H67.1407V33.2408C67.1407 33.2408 67.5366 45.8295 55.0315 45.8295H34.178C34.178 45.8295 22.4617 45.6357 22.4617 57.4131V76.8865C22.4617 76.8865 20.6829 88.6711 43.7082 88.6711ZM55.3016 81.8617C53.2098 81.8617 51.519 80.1321 51.519 77.9921C51.519 75.8522 53.2098 74.1226 55.3016 74.1226C57.3935 74.1226 59.0842 75.8522 59.0842 77.9921C59.0843 80.1321 57.3935 81.8617 55.3016 81.8617Z" fill="url(#paint1_linear_109_1011)"/>
<defs>
<linearGradient id="paint0_linear_109_1011" x1="11.2475" y1="10.9813" x2="70.1241" y2="68.3866" gradientUnits="userSpaceOnUse">
<stop stop-color="#387EB8"/>
<stop offset="1" stop-color="#366994"/>
</linearGradient>
<linearGradient id="paint1_linear_109_1011" x1="34.7403" y1="36.2635" x2="81.9182" y2="79.8599" gradientUnits="userSpaceOnUse">
<stop stop-color="#FFE052"/>
<stop offset="1" stop-color="#FFC331"/>
</linearGradient>
</defs>
</svg>
