<svg width="108" height="99" viewBox="0 0 108 99" fill="none" xmlns="http://www.w3.org/2000/svg">
<path fill-rule="evenodd" clip-rule="evenodd" d="M79 4H29C15.1929 4 4 15.1929 4 29V70C4 83.8071 15.1929 95 29 95H79C92.8071 95 104 83.8071 104 70V29C104 15.1929 92.8071 4 79 4ZM29 0C12.9837 0 0 12.9837 0 29V70C0 86.0163 12.9837 99 29 99H79C95.0163 99 108 86.0163 108 70V29C108 12.9837 95.0163 0 79 0H29Z" fill="#FFE7A6" fill-opacity="0.44"/>
<path d="M72.7448 34.156V32.986H71.5618V26.98H72.7448V25.797H76.4108V26.98H77.6068V28.28H76.2808V27.11H72.8748V29.333H75.2408V30.62H72.8748V32.856H76.2808V31.673H77.6068V32.986H76.4108V34.156H72.7448Z" fill="#B8A8A6"/>
<path d="M61.5959 34.156V26.98H62.7789V25.797H64.0789V26.98H65.2749V29.333H66.3149V26.98H67.5109V25.797H68.8239V26.98H69.9939V34.156H68.6939V27.11H67.6409V29.45H66.4449V32.986H65.1449V29.45H63.9489V27.11H62.9089V34.156H61.5959Z" fill="#B8A8A6"/>
<path d="M55.4157 34.156V32.986H54.2327V25.797H55.5457V32.856H58.9517V25.797H60.2777V32.986H59.0817V34.156H55.4157Z" fill="#B8A8A6"/>
<path d="M47.7985 34.156V32.986H46.6155V31.673H47.9285V32.856H51.3345V30.62H47.7985V29.45H46.6155V26.98H47.7985V25.797H51.4645V26.98H52.6605V28.28H51.3345V27.11H47.9285V29.333H51.4645V30.49H52.6605V32.986H51.4645V34.156H47.7985Z" fill="#B8A8A6"/>
<path d="M40.1813 34.156V32.986H38.9983V26.98H40.1813V25.797H43.8473V26.98H45.0433V28.28H43.7173V27.11H40.3113V29.333H42.6773V30.62H40.3113V32.856H43.7173V31.673H45.0433V32.986H43.8473V34.156H40.1813Z" fill="#B8A8A6"/>
<path d="M31.3811 34.156V26.98H32.5641V25.797H36.2301V26.98H37.4261V30.62H36.2301V31.803H35.6581V32.856H36.8281V34.156H35.5281V32.986H34.3321V31.803H32.6941V34.156H31.3811ZM32.6941 30.49H36.1001V27.11H32.6941V30.49Z" fill="#B8A8A6"/>
<path d="M79.3059 19.156V10.797H82.9849V11.98H84.1549V13.15H85.3509V16.803H84.1549V17.986H82.9849V19.156H79.3059ZM80.6189 17.856H82.8549V16.673H84.0249V13.28H82.8549V12.11H80.6189V17.856Z" fill="#B8A8A6"/>
<path d="M71.6887 19.156V13.15H72.8717V11.98H74.0417V10.797H75.3677V11.98H76.5377V13.15H77.7337V19.156H76.4077V16.803H73.0017V19.156H71.6887ZM73.0017 15.49H76.4077V13.28H75.2377V12.11H74.1717V13.28H73.0017V15.49Z" fill="#B8A8A6"/>
<path d="M65.2545 19.156V17.986H64.0715V11.98H65.2545V10.797H68.9205V11.98H70.1165V17.986H68.9205V19.156H65.2545ZM65.3845 17.856H68.7905V12.11H65.3845V17.856Z" fill="#B8A8A6"/>
<path d="M57.6373 19.156V17.986H56.4543V10.797H57.7673V17.856H61.1733V16.673H62.4993V17.986H61.3033V19.156H57.6373Z" fill="#B8A8A6"/>
<path d="M48.8372 19.156V10.797H50.1502V11.98H51.3202V13.15H52.5162V16.673H53.5562V10.797H54.8822V19.156H53.5562V17.986H52.3862V16.803H51.1902V13.28H50.1502V19.156H48.8372Z" fill="#B8A8A6"/>
<path d="M40.0543 19.156V17.986H38.8713V10.797H40.1843V17.856H41.2243V15.49H42.4203V11.98H43.7203V15.49H44.9163V17.856H45.9693V10.797H47.2693V17.986H46.0993V19.156H44.7863V17.986H43.5903V15.62H42.5503V17.986H41.3543V19.156H40.0543Z" fill="#B8A8A6"/>
<path d="M32.4371 19.156V17.986H31.2542V11.98H32.4371V10.797H36.1031V11.98H37.2991V17.986H36.1031V19.156H32.4371ZM32.5672 17.856H35.9732V12.11H32.5672V17.856Z" fill="#B8A8A6"/>
<path d="M23.637 19.156V10.797H27.316V11.98H28.486V13.15H29.682V16.803H28.486V17.986H27.316V19.156H23.637ZM24.95 17.856H27.186V16.673H28.356V13.28H27.186V12.11H24.95V17.856Z" fill="#B8A8A6"/>
<path d="M54.5 37.4375V49.4688C54.5 50.8363 55.0432 52.1478 56.0102 53.1148C56.9772 54.0818 58.2887 54.625 59.6562 54.625H71.6875V80.4062C71.6875 81.7738 71.1443 83.0853 70.1773 84.0523C69.2103 85.0193 67.8988 85.5625 66.5312 85.5625H42.4688C41.1012 85.5625 39.7897 85.0193 38.8227 84.0523C37.8557 83.0853 37.3125 81.7738 37.3125 80.4062V42.5938C37.3125 41.2262 37.8557 39.9147 38.8227 38.9477C39.7897 37.9807 41.1012 37.4375 42.4688 37.4375H54.5ZM57.9375 38.2969V49.4688C57.9375 49.9246 58.1186 50.3618 58.4409 50.6841C58.7632 51.0064 59.2004 51.1875 59.6562 51.1875H70.8281L57.9375 38.2969Z" fill="#745B5B"/>
<path d="M61.5025 64.75H59.25V57.6667C59.25 56.8875 58.6125 56.25 57.8333 56.25H52.1667C51.3875 56.25 50.75 56.8875 50.75 57.6667V64.75H48.4975C47.2367 64.75 46.5992 66.28 47.4917 67.1725L53.9942 73.675C54.5467 74.2275 55.4392 74.2275 55.9917 73.675L62.4942 67.1725C63.3867 66.28 62.7633 64.75 61.5025 64.75ZM45.0833 78.9167C45.0833 79.6958 45.7208 80.3333 46.5 80.3333H63.5C64.2792 80.3333 64.9167 79.6958 64.9167 78.9167C64.9167 78.1375 64.2792 77.5 63.5 77.5H46.5C45.7208 77.5 45.0833 78.1375 45.0833 78.9167Z" fill="#361B3E"/>
<path d="M61.5025 64.75H59.25V57.6667C59.25 56.8875 58.6125 56.25 57.8333 56.25H52.1667C51.3875 56.25 50.75 56.8875 50.75 57.6667V64.75H48.4975C47.2367 64.75 46.5992 66.28 47.4917 67.1725L53.9942 73.675C54.5467 74.2275 55.4392 74.2275 55.9917 73.675L62.4942 67.1725C63.3867 66.28 62.7633 64.75 61.5025 64.75ZM45.0833 78.9167C45.0833 79.6958 45.7208 80.3333 46.5 80.3333H63.5C64.2792 80.3333 64.9167 79.6958 64.9167 78.9167C64.9167 78.1375 64.2792 77.5 63.5 77.5H46.5C45.7208 77.5 45.0833 78.1375 45.0833 78.9167Z" fill="#361B3E"/>
</svg>
