<svg width="50" height="50" viewBox="0 0 50 50" fill="none" xmlns="http://www.w3.org/2000/svg">
<mask id="mask0_158_303" style="mask-type:luminance" maskUnits="userSpaceOnUse" x="0" y="0" width="50" height="50">
<path d="M45 1H5C2.79086 1 1 2.79086 1 5V45C1 47.2091 2.79086 49 5 49H45C47.2091 49 49 47.2091 49 45V5C49 2.79086 47.2091 1 45 1Z" fill="white" stroke="white" stroke-width="2" stroke-linejoin="round"/>
<path d="M17 17C17 15.9391 17.4214 14.9217 18.1716 14.1716C18.9217 13.4214 19.9391 13 21 13H25V21H21C19.9391 21 18.9217 20.5786 18.1716 19.8284C17.4214 19.0783 17 18.0609 17 17ZM17 25C17 23.9391 17.4214 22.9217 18.1716 22.1716C18.9217 21.4214 19.9391 21 21 21H25V29H21C19.9391 29 18.9217 28.5786 18.1716 27.8284C17.4214 27.0783 17 26.0609 17 25ZM17 33C17 31.9391 17.4214 30.9217 18.1716 30.1716C18.9217 29.4214 19.9391 29 21 29H25V33C25 34.0609 24.5786 35.0783 23.8284 35.8284C23.0783 36.5786 22.0609 37 21 37C19.9391 37 18.9217 36.5786 18.1716 35.8284C17.4214 35.0783 17 34.0609 17 33ZM25 13H29C30.0609 13 31.0783 13.4214 31.8284 14.1716C32.5786 14.9217 33 15.9391 33 17C33 18.0609 32.5786 19.0783 31.8284 19.8284C31.0783 20.5786 30.0609 21 29 21H25V13Z" fill="black"/>
<path d="M25 13H21C19.9391 13 18.9217 13.4214 18.1716 14.1716C17.4214 14.9217 17 15.9391 17 17C17 18.0609 17.4214 19.0783 18.1716 19.8284C18.9217 20.5786 19.9391 21 21 21M25 13V21M25 13H29C30.0609 13 31.0783 13.4214 31.8284 14.1716C32.5786 14.9217 33 15.9391 33 17C33 18.0609 32.5786 19.0783 31.8284 19.8284C31.0783 20.5786 30.0609 21 29 21H25M25 21H21M25 21V29M21 21C19.9391 21 18.9217 21.4214 18.1716 22.1716C17.4214 22.9217 17 23.9391 17 25C17 26.0609 17.4214 27.0783 18.1716 27.8284C18.9217 28.5786 19.9391 29 21 29M25 29H21M25 29V33C25 34.0609 24.5786 35.0783 23.8284 35.8284C23.0783 36.5786 22.0609 37 21 37C19.9391 37 18.9217 36.5786 18.1716 35.8284C17.4214 35.0783 17 34.0609 17 33C17 31.9391 17.4214 30.9217 18.1716 30.1716C18.9217 29.4214 19.9391 29 21 29" stroke="black" stroke-width="2" stroke-linejoin="round"/>
<path d="M25 25C25 23.9391 25.4214 22.9217 26.1716 22.1716C26.9217 21.4214 27.9391 21 29 21C30.0609 21 31.0783 21.4214 31.8284 22.1716C32.5786 22.9217 33 23.9391 33 25C33 26.0609 32.5786 27.0783 31.8284 27.8284C31.0783 28.5786 30.0609 29 29 29C27.9391 29 26.9217 28.5786 26.1716 27.8284C25.4214 27.0783 25 26.0609 25 25Z" fill="black" stroke="black" stroke-width="2" stroke-linejoin="round"/>
</mask>
<g mask="url(#mask0_158_303)">
<path d="M-7 -7H57V57H-7V-7Z" fill="#1B133C"/>
</g>
</svg>
