<svg width="60" height="54" viewBox="0 0 60 54" fill="none" xmlns="http://www.w3.org/2000/svg">
<path d="M7.8225 0.350693C5.205 1.90319 0.050625 7.82069 0 9.37319V11.9513C0 15.2044 3.04688 18.0769 5.81063 18.0769C9.13125 18.0769 11.9062 15.3226 11.9062 12.0526C11.9062 15.3226 14.5706 18.0769 17.9006 18.0769C21.2213 18.0769 23.8088 15.3226 23.8088 12.0526C23.8088 15.3226 26.6512 18.0769 29.9719 18.0769H30.0319C33.3619 18.0769 36.2025 15.3226 36.2025 12.0526C36.2025 15.3226 38.7919 18.0769 42.1125 18.0769C45.4331 18.0769 48.1069 15.3226 48.1069 12.0526C48.1069 15.3226 50.8725 18.0769 54.1912 18.0769C56.9644 18.0769 60.0112 15.2044 60.0112 11.9513V9.37319C59.9512 7.82069 54.8062 1.90319 52.1794 0.350693C44.0437 0.0581933 38.4094 0.00756836 30.0113 0.00756836C21.6038 0.0169434 10.1494 0.144443 7.83375 0.350693H7.8225ZM23.7694 16.5394C23.4491 17.0889 23.0548 17.5918 22.5975 18.0338V18.0432C21.293 19.3129 19.5448 20.0238 17.7244 20.0251C15.9012 20.0268 14.1506 19.3108 12.8512 18.0319C12.4063 17.5976 12.0273 17.1004 11.7263 16.5563C11.4131 17.1132 10.9763 17.5913 10.5169 18.0319C9.2175 19.3108 7.46692 20.0268 5.64375 20.0251H5.63438C5.41026 20.0153 5.18923 19.9691 4.98 19.8882C4.75181 22.343 4.61172 24.8052 4.56 27.2701V27.2794C4.55062 28.2676 4.55062 29.0663 4.53937 30.1894C4.59937 36.0301 3.96375 49.1063 7.11937 52.3201C12.0019 53.4526 20.9869 53.9701 29.9888 53.9794H29.9981C39.0113 53.9701 47.985 53.4526 52.8675 52.3201C56.0231 49.1082 55.3875 36.0301 55.4475 30.1894C55.4381 29.0663 55.4381 28.2676 55.4269 27.2794V27.2701C55.3803 24.805 55.2402 22.3426 55.0069 19.8882C54.7987 19.9727 54.5771 20.019 54.3525 20.0251H54.3431C52.52 20.0268 50.7694 19.3108 49.47 18.0319H49.4794C49.02 17.5913 48.5813 17.1151 48.27 16.5563H48.2606C47.9625 17.0998 47.5866 17.5969 47.145 18.0319C45.8443 19.3088 44.0945 20.0241 42.2719 20.0241C40.4492 20.0241 38.6994 19.3088 37.3988 18.0319C36.9477 17.596 36.5596 17.0994 36.2456 16.5563L36.225 16.5263C35.9025 17.1038 35.5125 17.6007 35.0719 18.0319C33.7725 19.3108 32.0219 20.0268 30.1988 20.0251H30.1894C30.1294 20.0263 30.0644 20.0232 29.9944 20.0157C29.9269 20.0232 29.8587 20.0263 29.79 20.0251H29.7806C27.9614 20.0239 26.2154 19.3081 24.9188 18.0319C24.4678 17.5987 24.0831 17.1015 23.7769 16.5563L23.7563 16.5263L23.7694 16.5394ZM18.7594 23.0157C20.7412 23.0251 22.5 23.0157 24.6863 25.3988C26.4038 25.2244 28.2019 25.1363 29.9981 25.1363C31.7944 25.1363 33.5925 25.2244 35.31 25.3988C37.4981 23.0157 39.255 23.0157 41.2369 23.0157H41.2463C42.1838 23.0157 45.9337 23.0157 48.5419 30.3507L51.345 40.4176C53.4244 47.9082 50.6794 48.0957 47.2631 48.0957C42.1856 47.9082 39.3731 44.2182 39.3731 40.5263C36.5606 40.9969 33.2775 41.2219 29.9981 41.2219C26.7188 41.2219 23.4356 40.9969 20.6325 40.5263C20.6325 44.2182 17.82 47.9082 12.7425 48.0957C9.315 48.0863 6.57 47.9082 8.64937 40.4176L11.4525 30.3507C14.07 23.0157 17.82 23.0157 18.7575 23.0157H18.7594ZM30 28.7869C29.9906 28.7869 24.6581 33.6994 23.6925 35.4376L27.1875 35.3007V38.3476C27.1875 38.4957 28.5956 38.4357 30 38.3682C31.4044 38.4357 32.8031 38.4957 32.8031 38.3476V35.3007L36.3075 35.4376C35.3419 33.6994 30 28.7869 30 28.7869Z" fill="#1B133C"/>
</svg>
