<svg width="60" height="62" viewBox="0 0 60 62" fill="none" xmlns="http://www.w3.org/2000/svg">
<path fill-rule="evenodd" clip-rule="evenodd" d="M6.66634 0.75C5.11924 0.75 3.63551 1.36458 2.54155 2.45854C1.44759 3.55251 0.833008 5.03624 0.833008 6.58333V47.4167C0.833008 48.9638 1.44759 50.4475 2.54155 51.5415C3.63551 52.6354 5.11924 53.25 6.66634 53.25H53.333C54.8801 53.25 56.3638 52.6354 57.4578 51.5415C58.5518 50.4475 59.1663 48.9638 59.1663 47.4167V6.58333C59.1663 5.03624 58.5518 3.55251 57.4578 2.45854C56.3638 1.36458 54.8801 0.75 53.333 0.75H6.66634ZM20.1559 17.1708C20.2206 16.6132 20.4148 16.0784 20.7229 15.6092C21.031 15.1399 21.4445 14.7492 21.9304 14.4681C22.4164 14.187 22.9612 14.0234 23.5216 13.9903C24.082 13.9572 24.6424 14.0556 25.158 14.2775C26.628 14.9075 29.7313 16.325 33.663 18.5942C36.4261 20.1734 39.0946 21.9127 41.6547 23.8033C42.1048 24.1383 42.4704 24.5738 42.7222 25.0751C42.9741 25.5765 43.1053 26.1298 43.1053 26.6908C43.1053 27.2519 42.9741 27.8052 42.7222 28.3065C42.4704 28.8079 42.1048 29.2434 41.6547 29.5783C39.0944 31.467 36.426 33.2044 33.663 34.7817C30.9147 36.387 28.0748 37.8303 25.158 39.1042C24.6424 39.3267 24.0819 39.4256 23.5213 39.3928C22.9607 39.36 22.4155 39.1964 21.9294 38.9153C21.4433 38.6341 21.0298 38.2431 20.7218 37.7735C20.4139 37.3039 20.2201 36.7687 20.1559 36.2108C19.806 33.0497 19.6346 29.8713 19.6426 26.6908C19.6426 22.1671 19.9693 18.7604 20.1559 17.1708Z" fill="#1B133C"/>
</svg>
