<svg width="46" height="46" viewBox="0 0 46 46" fill="none" xmlns="http://www.w3.org/2000/svg">
<path d="M32.81 27.5C32.99 26.015 33.125 24.53 33.125 23C33.125 21.47 32.99 19.985 32.81 18.5H40.415C40.775 19.94 41 21.4475 41 23C41 24.5525 40.775 26.06 40.415 27.5M28.8275 40.01C30.1775 37.5125 31.2125 34.8125 31.9325 32H38.57C36.3901 35.7536 32.9318 38.597 28.8275 40.01ZM28.265 27.5H17.735C17.51 26.015 17.375 24.53 17.375 23C17.375 21.47 17.51 19.9625 17.735 18.5H28.265C28.4675 19.9625 28.625 21.47 28.625 23C28.625 24.53 28.4675 26.015 28.265 27.5ZM23 40.91C21.1325 38.21 19.625 35.2175 18.7025 32H27.2975C26.375 35.2175 24.8675 38.21 23 40.91ZM14 14H7.43C9.58694 10.2358 13.043 7.38779 17.15 5.99C15.8 8.4875 14.7875 11.1875 14 14ZM7.43 32H14C14.7875 34.8125 15.8 37.5125 17.15 40.01C13.0511 38.5977 9.59965 35.7534 7.43 32ZM5.585 27.5C5.225 26.06 5 24.5525 5 23C5 21.4475 5.225 19.94 5.585 18.5H13.19C13.01 19.985 12.875 21.47 12.875 23C12.875 24.53 13.01 26.015 13.19 27.5M23 5.0675C24.8675 7.7675 26.375 10.7825 27.2975 14H18.7025C19.625 10.7825 21.1325 7.7675 23 5.0675ZM38.57 14H31.9325C31.2272 11.2136 30.1845 8.52374 28.8275 5.99C32.9675 7.4075 36.41 10.265 38.57 14ZM23 0.5C10.5575 0.5 0.5 10.625 0.5 23C0.5 28.9674 2.87053 34.6903 7.0901 38.9099C9.17942 40.9992 11.6598 42.6566 14.3896 43.7873C17.1194 44.918 20.0453 45.5 23 45.5C28.9674 45.5 34.6903 43.1295 38.9099 38.9099C43.1295 34.6903 45.5 28.9674 45.5 23C45.5 20.0453 44.918 17.1194 43.7873 14.3896C42.6566 11.6598 40.9992 9.17942 38.9099 7.0901C36.8206 5.00078 34.3402 3.34344 31.6104 2.21271C28.8806 1.08198 25.9547 0.5 23 0.5Z" fill="#1B133C"/>
</svg>
