<svg width="97" height="98" viewBox="0 0 97 98" fill="none" xmlns="http://www.w3.org/2000/svg">
<rect width="97" height="98" fill="#1E1E1E"/>
<g clip-path="url(#clip0_0_1)">
<g clip-path="url(#clip1_0_1)">
<g clip-path="url(#clip2_0_1)">
<path fill-rule="evenodd" clip-rule="evenodd" d="M15.5947 19.9563L21.7651 89.1648L49.4544 96.8515L77.2201 89.154L83.397 19.9563H15.5947ZM71.9321 84.7477L49.496 90.9679V82.1595L49.457 82.1703L32.0697 77.3435L30.8805 64.0159H34.8077H39.4012L40.0055 70.7855L49.4588 73.3381L49.496 73.3282V59.7716H30.5012L28.415 36.3806L28.2118 34.1034H49.4667H49.496V25.6152H77.2107L71.9321 84.7477ZM49.496 42.5916V51.2836H38.264L37.4883 42.5916H49.496Z" fill="#E44D26"/>
<path fill-rule="evenodd" clip-rule="evenodd" d="M21.9033 1.14844H26.2169V5.41022H30.1628V1.14844H34.4765V14.0542H30.1629V9.73256H26.2171V14.0542H21.9035V1.14844H21.9033Z" fill="#E44D26"/>
<path fill-rule="evenodd" clip-rule="evenodd" d="M40.149 5.42816H36.3516V1.14844H48.2621V5.42816H44.463V14.0542H40.1492V5.42816H40.149Z" fill="#E44D26"/>
<path fill-rule="evenodd" clip-rule="evenodd" d="M50.1523 1.14844H54.6502L57.417 5.68312L60.181 1.14844H64.6805V14.0542H60.3847V7.65737L57.417 12.2461H57.3428L54.373 7.65737V14.0542H50.1523V1.14844H50.1523Z" fill="#E44D26"/>
<path fill-rule="evenodd" clip-rule="evenodd" d="M66.8271 1.14844H71.142V9.78826H77.2081V14.0542H66.8271V1.14844V1.14844Z" fill="#E44D26"/>
<path fill-rule="evenodd" clip-rule="evenodd" d="M49.4668 51.2837V59.7717H59.919L58.9337 70.7802L49.4668 73.3354V82.1663L66.8679 77.3435L66.9956 75.9095L68.9902 53.563L69.1973 51.2837H66.91H49.4668Z" fill="#E44D26"/>
<path fill-rule="evenodd" clip-rule="evenodd" d="M49.4668 34.1035V39.3754V42.571V42.5917H69.9424V42.5917H69.9697L70.14 40.6839L70.5267 36.3808L70.7297 34.1035H49.4668Z" fill="#E44D26"/>
</g>
</g>
</g>
<defs>
<clipPath id="clip0_0_1">
<rect width="67.9492" height="95.7031" fill="white" transform="translate(15.4766 1.14844)"/>
</clipPath>
<clipPath id="clip1_0_1">
<rect width="67.9492" height="95.7031" fill="white" transform="translate(15.4766 1.14844)"/>
</clipPath>
<clipPath id="clip2_0_1">
<rect width="67.9492" height="95.7031" fill="white" transform="translate(15.4766 1.14844)"/>
</clipPath>
</defs>
</svg>
