<svg width="72" height="72" viewBox="0 0 72 72" fill="none" xmlns="http://www.w3.org/2000/svg">
<path d="M57 9C58.5913 9 60.1174 9.63214 61.2426 10.7574C62.3679 11.8826 63 13.4087 63 15V57C63 58.5913 62.3679 60.1174 61.2426 61.2426C60.1174 62.3679 58.5913 63 57 63H15C13.4087 63 11.8826 62.3679 10.7574 61.2426C9.63214 60.1174 9 58.5913 9 57V15C9 13.4087 9.63214 11.8826 10.7574 10.7574C11.8826 9.63214 13.4087 9 15 9H57ZM55.5 55.5V39.6C55.5 37.0062 54.4696 34.5186 52.6355 32.6845C50.8014 30.8504 48.3138 29.82 45.72 29.82C43.17 29.82 40.2 31.38 38.76 33.72V30.39H30.39V55.5H38.76V40.71C38.76 38.4 40.62 36.51 42.93 36.51C44.0439 36.51 45.1122 36.9525 45.8998 37.7402C46.6875 38.5278 47.13 39.5961 47.13 40.71V55.5H55.5ZM20.64 25.68C21.9767 25.68 23.2586 25.149 24.2038 24.2038C25.149 23.2586 25.68 21.9767 25.68 20.64C25.68 17.85 23.43 15.57 20.64 15.57C19.2954 15.57 18.0058 16.1042 17.055 17.055C16.1042 18.0058 15.57 19.2954 15.57 20.64C15.57 23.43 17.85 25.68 20.64 25.68ZM24.81 55.5V30.39H16.5V55.5H24.81Z" fill="#FFE7A6" fill-opacity="0.44"/>
</svg>
