<svg width="80" height="85" viewBox="0 0 80 85" fill="none" xmlns="http://www.w3.org/2000/svg">
<rect width="80" height="85" fill="#1E1E1E"/>
<g clip-path="url(#clip0_0_1)">
<path d="M52.1475 42.4071L66.4944 16.7908L73.4269 42.4071L66.4941 68.0173L52.1475 42.4071ZM45.155 46.5671L59.5037 72.1793L34.5144 65.5596L16.4612 46.5671H45.155ZM59.5006 12.6275L45.155 38.2439H16.4612L34.5144 19.2501L59.5006 12.6275ZM79.9816 33.6893L71.2291 0.0195312L38.5603 9.04302L33.7244 17.8345L23.9116 17.7618L0 42.4094L23.9116 67.0512H23.9125L33.7212 66.9762L38.5641 75.7677L71.2291 84.7896L79.9812 51.1262L75.0106 42.4075L79.9812 33.69L79.9816 33.6893Z" fill="#828B93"/>
</g>
<defs>
<clipPath id="clip0_0_1">
<rect width="80" height="85" fill="white"/>
</clipPath>
</defs>
</svg>
