<svg width="27" height="28" viewBox="0 0 27 28" fill="none" xmlns="http://www.w3.org/2000/svg">
<path d="M7.45861 1.33498C8.46633 1.67504 9.4247 2.14678 10.3088 2.73796C11.5582 2.41816 12.8431 2.25772 14.1328 2.26046C15.4647 2.26046 16.7496 2.42678 17.9541 2.73661C18.8379 2.14601 19.7958 1.67473 20.803 1.33498C21.7378 1.0171 23.0697 0.502048 23.8611 1.3779C24.3976 1.97343 24.5317 2.97134 24.6269 3.73318C24.7342 4.58355 24.7597 5.69145 24.4781 6.79129C25.5551 8.1822 26.2043 9.84136 26.2043 11.6494C26.2043 14.3883 24.7208 16.7664 22.5252 18.4135C21.468 19.1953 20.2961 19.8088 19.0513 20.2322C19.3383 20.8894 19.4979 21.6164 19.4979 22.3796V26.4034C19.4979 26.7592 19.3566 27.1003 19.105 27.3519C18.8535 27.6034 18.5124 27.7447 18.1566 27.7447H10.109C9.75324 27.7447 9.41208 27.6034 9.16054 27.3519C8.909 27.1003 8.76769 26.7592 8.76769 26.4034V25.0742C7.48677 25.2312 6.41241 25.0917 5.499 24.704C4.54401 24.299 3.87874 23.6713 3.37844 23.0704C2.90363 22.5017 2.3859 21.2194 1.63747 20.9699C1.47031 20.9143 1.31576 20.8262 1.18262 20.7108C1.04949 20.5954 0.940392 20.455 0.861552 20.2974C0.702329 19.9792 0.676029 19.6108 0.788439 19.2732C0.90085 18.9356 1.14276 18.6565 1.46096 18.4973C1.77915 18.3381 2.14757 18.3118 2.48515 18.4242C3.37844 18.7219 3.96056 19.3658 4.35892 19.8835C5.00273 20.7151 5.52583 21.8015 6.5452 22.2347C6.96502 22.4131 7.58066 22.5298 8.5437 22.3984L8.76769 22.3528C8.77078 21.6229 8.92276 20.9013 9.21434 20.2322C7.96946 19.8088 6.79762 19.1953 5.74043 18.4135C3.54476 16.7664 2.06131 14.3896 2.06131 11.6494C2.06131 9.84404 2.70915 8.18622 3.78351 6.79666C3.50184 5.69681 3.52598 4.58623 3.63329 3.73452L3.63999 3.68356C3.73791 2.90293 3.85191 1.98416 4.39915 1.3779C5.19051 0.502048 6.52374 1.01844 7.45726 1.33632L7.45861 1.33498Z" fill="#1B133C"/>
</svg>
