<svg width="28" height="28" viewBox="0 0 28 28" fill="none" xmlns="http://www.w3.org/2000/svg">
<path d="M6.62597 10.5157L2.25087 14.8908C1.54093 15.5913 0.976565 16.4253 0.59027 17.3448C0.203975 18.2643 0.00338368 19.2511 4.24403e-05 20.2485C-0.0032988 21.2458 0.190678 22.234 0.570803 23.156C0.950928 24.0781 1.50969 24.9159 2.21493 25.6211C2.92016 26.3263 3.75793 26.8851 4.68 27.2652C5.60207 27.6454 6.59022 27.8393 7.58756 27.836C8.58491 27.8327 9.57174 27.6321 10.4912 27.2458C11.4107 26.8595 12.2448 26.2951 12.9452 25.5852L14.4027 24.1277C14.5998 23.9376 14.757 23.71 14.8652 23.4585C14.9734 23.2069 15.0304 22.9363 15.0329 22.6625C15.0354 22.3886 14.9834 22.117 14.8798 21.8635C14.7762 21.61 14.6232 21.3796 14.4296 21.1859C14.2361 20.9922 14.0059 20.8389 13.7525 20.7351C13.499 20.6313 13.2275 20.579 12.9536 20.5812C12.6798 20.5835 12.4091 20.6402 12.1575 20.7482C11.9058 20.8562 11.6781 21.0132 11.4878 21.2101L10.0276 22.6689C9.38191 23.3088 8.50904 23.6668 7.6 23.6647C6.69096 23.6626 5.81978 23.3005 5.17708 22.6576C4.53438 22.0147 4.1725 21.1434 4.17064 20.2344C4.16878 19.3253 4.52708 18.4526 5.16714 17.8071L9.54224 13.432C10.0151 12.9589 10.6158 12.634 11.2705 12.4973C11.9253 12.3605 12.6058 12.4178 13.2285 12.662C13.4503 12.75 13.6584 12.8398 13.8527 12.9315L14.4907 13.2299C15.3432 13.6148 15.999 13.7798 16.8336 12.9466C18.0326 11.7477 17.7218 10.6408 16.2602 9.63298C14.8043 8.63114 13.0434 8.17088 11.2835 8.33213C9.52352 8.49338 7.87562 9.26596 6.62597 10.5157ZM14.8894 2.25225L13.432 3.7097C13.0561 4.0985 12.848 4.61937 12.8524 5.16014C12.8569 5.7009 13.0735 6.21829 13.4557 6.60086C13.8379 6.98344 14.3551 7.20058 14.8959 7.20554C15.4366 7.21049 15.9577 7.00285 16.3469 6.62734L17.8057 5.16989C18.1227 4.8415 18.5019 4.57953 18.9212 4.39926C19.3406 4.21899 19.7916 4.12404 20.248 4.11995C20.7044 4.11585 21.1571 4.2027 21.5795 4.37541C22.002 4.54813 22.3859 4.80325 22.7087 5.12591C23.0316 5.44856 23.2869 5.83228 23.4599 6.25467C23.6328 6.67706 23.7199 7.12967 23.7161 7.58608C23.7122 8.04249 23.6176 8.49357 23.4375 8.91299C23.2575 9.33242 22.9957 9.71179 22.6675 10.029L18.2924 14.4041C17.8195 14.8772 17.2189 15.202 16.5641 15.3388C15.9094 15.4755 15.2289 15.4183 14.6062 15.174C14.3844 15.086 14.1763 14.9962 13.982 14.9045L13.344 14.6062C12.4915 14.2212 11.8343 14.0562 11.0011 14.8894C9.8021 16.0884 10.1128 17.1952 11.5744 18.2031C13.0304 19.2049 14.7912 19.6652 16.5512 19.5039C18.3111 19.3427 19.959 18.5701 21.2087 17.3203L25.5838 12.9452C26.2937 12.2447 26.8581 11.4107 27.2444 10.4912C27.6307 9.57174 27.8313 8.58491 27.8346 7.58756C27.838 6.59022 27.644 5.60206 27.2639 4.68C26.8837 3.75793 26.325 2.92016 25.6197 2.21493C24.9145 1.50969 24.0767 0.950928 23.1547 0.570803C22.2326 0.190677 21.2444 -0.00329879 20.2471 4.24404e-05C19.2498 0.00338368 18.2629 0.203977 17.3434 0.590271C16.4239 0.976566 15.5899 1.54231 14.8894 2.25225Z" fill="#18163C"/>
</svg>
