<svg width="100" height="102" viewBox="0 0 100 102" fill="none" xmlns="http://www.w3.org/2000/svg">
<path d="M50 102C77.6142 102 100 79.1665 100 51C100 22.8335 77.6142 0 50 0C22.3858 0 0 22.8335 0 51C0 79.1665 22.3858 102 50 102Z" fill="#05930C"/>
<path d="M15.1963 14.3835L85.8345 86.5671C76.751 96.0869 64.0525 102 50 102C22.3858 102 0 79.1665 0 51C0 36.6327 5.82446 23.653 15.1963 14.3835Z" fill="white" fill-opacity="0.1"/>
<path d="M47.5468 69.4078C44.1454 71.0959 40.3895 71.9059 36.6093 71.7666C31.5553 71.9925 26.6515 69.9825 23.1562 66.2522C19.683 62.281 17.8715 57.0811 18.1093 51.765C17.8648 46.0041 19.9164 40.3874 23.7968 36.1941C27.5901 32.2356 32.8421 30.0893 38.2655 30.2813C41.4337 30.1579 44.5929 30.7004 47.5468 31.875V36.8953C44.6818 35.2711 41.4493 34.4413 38.1718 34.4888C34.0432 34.3492 30.0565 36.0338 27.2343 39.1106C24.3085 42.5126 22.7955 46.9424 23.0155 51.4622C22.7991 55.7337 24.2099 59.9252 26.953 63.1603C29.6145 66.079 33.392 67.668 37.2968 67.5113C40.8974 67.6025 44.4519 66.6699 47.5624 64.8178L47.5468 69.4078ZM82.4374 42.1706L81.8124 45.135H74.6249L72.9062 53.55H80.6249L79.8906 56.5144H72.3281L69.9062 67.6706H66.453L68.8124 56.5144H61.9374L59.6249 67.6706H56.2499L58.5624 56.5144H51.3124L51.8593 53.55H59.1405L60.8124 45.1509H53.203L53.7812 42.1866H61.3906L63.7031 30.9188H67.1874L64.8749 42.1866H71.7968L74.1562 30.9188H77.5312L75.2187 42.1866L82.4374 42.1706ZM71.2343 45.135H64.2968L62.4999 53.55H69.4687L71.2343 45.135Z" fill="white"/>
</svg>
