<svg width="99" height="98" viewBox="0 0 99 98" fill="none" xmlns="http://www.w3.org/2000/svg">
<path fill-rule="evenodd" clip-rule="evenodd" d="M15.665 19.8975L21.831 89.0539L49.5013 96.7352L77.2469 89.0426L83.4195 19.8975H15.665ZM71.9912 84.6915L49.5992 90.8516L49.5992 59.5338L30.5218 59.5338L29.779 51.0645L49.5992 42.5815V25.6568H77.2376L71.9912 84.6915ZM49.5991 41.9956V33.5263H28.2731L29.0247 41.9956H49.5991ZM49.5336 73.2341L49.5992 73.2242V82.0494L49.5317 82.0654L32.1278 77.2465L30.9396 63.9378H39.4545L40.0726 70.6933L49.5336 73.2341Z" fill="#0071BC"/>
<path d="M50.9663 41.9955L49.5992 42.5815V51.0645L69.9995 41.9955L70.7281 33.5262L49.5991 33.5263V41.9956L50.9663 41.9955Z" fill="#0071BC"/>
<path d="M49.5992 51.0645L49.5992 59.5338L59.9575 59.5339L59.0161 70.6068L49.5992 73.2316V82.0562L66.9454 77.2373L69.2296 51.0646L49.5992 51.0645Z" fill="#0071BC"/>
<path fill-rule="evenodd" clip-rule="evenodd" d="M39.7178 5.55247V1.14844H29.2159V14.0218H39.7178V9.61774H33.6199V5.55247H39.7178Z" fill="#0071BC"/>
<path fill-rule="evenodd" clip-rule="evenodd" d="M54.6239 1.14844H44.1219V5.66918L48.5041 9.61774H44.1219V14.0218H54.6239V9.73428L50.6399 5.55247H54.6239V1.14844Z" fill="#0071BC"/>
<path fill-rule="evenodd" clip-rule="evenodd" d="M69.8686 1.14844H59.3667V5.66918L63.5795 9.61774H59.3667V14.0218H69.8686V9.73428L65.7153 5.55247H69.8686V1.14844Z" fill="#0071BC"/>
</svg>
