<svg width="109" height="109" viewBox="0 0 109 109" fill="none" xmlns="http://www.w3.org/2000/svg">
<path d="M84.9666 30.6556L87.3188 32.3587C91.4096 35.6584 93.7618 39.3838 94.2731 43.6414C98.6707 42.7899 104.296 43.4285 106.75 45.1316L109 46.5153L108.591 47.3669C107.875 48.9635 107.67 49.3892 107.568 49.6021C103.58 57.5852 95.7049 57.6916 92.0232 57.5852C82.7166 80.8958 62.8763 93.7752 36.0816 93.7752C23.7069 93.7752 14.2981 89.8368 7.95738 82.0666C-0.428749 71.8483 -0.428749 58.5432 0.28714 54.2855L0.491679 53.434H74.4328C78.319 53.434 81.2849 52.3696 82.7166 51.5181C81.1826 49.1764 80.6712 46.5153 80.569 45.0252C80.2622 40.7675 81.2849 36.297 83.3303 33.1038L84.9666 30.6556ZM19.7184 40.6611V51.3052H8.46873V40.6611H19.7184ZM33.0135 40.6611V51.3052H21.7638V40.6611H33.0135ZM46.3086 40.6611V51.3052H35.0589V40.6611H46.3086ZM59.6037 40.6611V51.3052H48.354V40.6611H59.6037ZM72.8987 40.6611V51.3052H61.6491V40.6611H72.8987ZM59.6037 27.8882V38.5323H48.354V27.8882H59.6037ZM46.3086 27.8882V38.5323H35.0589V27.8882H46.3086ZM33.0135 27.8882V38.5323H21.7638V27.8882H33.0135ZM59.6037 15.1152V25.7593H48.354V15.1152H59.6037Z" fill="#2396ED"/>
</svg>
