<svg width="69" height="96" viewBox="0 0 69 96" fill="none" xmlns="http://www.w3.org/2000/svg">
<path d="M34.496 41.5917V50.2836H23.264L22.4883 41.5917H34.496Z" fill="#E44D26"/>
<path fill-rule="evenodd" clip-rule="evenodd" d="M0.594727 18.9563L6.76515 88.1648L34.4544 95.8516L62.2201 88.154L68.397 18.9563H0.594727ZM56.9321 83.7478L34.496 89.9679V81.1595L34.457 81.1703L17.0697 76.3435L15.8805 63.0159H24.4012L25.0055 69.7856L34.4588 72.3382L34.496 72.3283V58.7717H15.5012L13.2118 33.1034H34.4667H34.496V24.6152H62.2107L56.9321 83.7478Z" fill="#E44D26"/>
<path fill-rule="evenodd" clip-rule="evenodd" d="M6.9031 0.148438H11.2167V4.41022H15.1625V0.148438H19.4763V13.0542H15.1627V8.73256H11.2168V13.0542H6.90328L6.9031 0.148438Z" fill="#E44D26"/>
<path fill-rule="evenodd" clip-rule="evenodd" d="M25.1487 4.42816H21.3513V0.148438H33.2618V4.42816H29.4627V13.0542H25.1489L25.1487 4.42816Z" fill="#E44D26"/>
<path fill-rule="evenodd" clip-rule="evenodd" d="M35.1522 0.148438H39.65L42.4168 4.68312L45.1808 0.148438H49.6803V13.0542H45.3845V6.65737L42.4168 11.2461H42.3426L39.3728 6.65737V13.0542H35.1522V0.148438Z" fill="#E44D26"/>
<path fill-rule="evenodd" clip-rule="evenodd" d="M51.8271 0.148438H56.142V8.78826H62.2081V13.0542H51.8271V0.148438Z" fill="#E44D26"/>
<path fill-rule="evenodd" clip-rule="evenodd" d="M34.4665 50.2836V58.7716H44.9187L43.9335 69.7801L34.4665 72.3353V81.1662L51.8677 76.3435L53.99 52.5629L54.1971 50.2836H34.4665Z" fill="#E44D26"/>
<path fill-rule="evenodd" clip-rule="evenodd" d="M34.4667 33.1034L34.4665 41.5916H54.9694L55.7294 33.1034L34.4667 33.1034Z" fill="#E44D26"/>
</svg>
