<svg width="89" height="88" viewBox="0 0 89 88" fill="none" xmlns="http://www.w3.org/2000/svg">
<path fill-rule="evenodd" clip-rule="evenodd" d="M0 0H89V88H0V0ZM23.4013 73.5392C25.3729 77.6737 29.2567 81.0995 35.9471 81.0995C43.3554 81.0995 48.4332 77.2009 48.4332 68.6355V40.4005H40.0695V68.5186C40.0695 72.6532 38.3368 73.7162 35.5886 73.7162C32.7215 73.7162 31.5262 71.7672 30.2122 69.4637L23.4013 73.5392ZM59.7862 68.7544L52.9763 72.6531C55.4254 77.438 60.4439 81.1002 68.2103 81.1002C76.1559 81.1002 82.0703 77.0247 82.0703 69.5813C82.0703 62.6702 78.0674 59.5989 70.958 56.5861L68.8672 55.7001C65.2831 54.1641 63.7297 53.1597 63.7297 50.6786C63.7297 48.6706 65.2831 47.1348 67.7325 47.1348C70.1221 47.1348 71.6749 48.1388 73.1088 50.6786L79.6208 46.5439C76.873 41.7591 73.0495 39.9277 67.7324 39.9277C60.2643 39.9277 55.485 44.6536 55.485 50.856C55.485 57.5903 59.4879 60.7801 65.5222 63.3196L67.6126 64.2063C71.4362 65.8598 73.7063 66.8641 73.7063 69.6995C73.7063 72.0624 71.4964 73.7756 68.0309 73.7756C63.9089 73.7756 61.579 71.6492 59.7862 68.7544Z" fill="#FECD3C"/>
</svg>
