<svg width="98" height="98" viewBox="0 0 98 98" fill="none" xmlns="http://www.w3.org/2000/svg">
<path fill-rule="evenodd" clip-rule="evenodd" d="M49.0868 96.674C47.7704 96.674 46.5418 96.323 45.4009 95.7086L33.729 88.7757C31.9738 87.8103 32.8514 87.4593 33.3779 87.2838C35.7474 86.494 36.1862 86.3184 38.6435 84.9143C38.9067 84.7388 39.2578 84.8265 39.521 85.0021L48.4724 90.3554C48.8235 90.5309 49.2623 90.5309 49.5256 90.3554L84.5414 70.083C84.8924 69.9075 85.0679 69.5565 85.0679 69.1177V28.6608C85.0679 28.2221 84.8924 27.871 84.5414 27.6955L49.5256 7.51096C49.1745 7.33544 48.7357 7.33544 48.4724 7.51096L13.4567 27.6955C13.1056 27.871 12.9301 28.3098 12.9301 28.6608V69.1177C12.9301 69.4687 13.1056 69.9075 13.4567 70.083L23.0224 75.6119C28.2001 78.2446 31.4472 75.1731 31.4472 72.1015V32.1712C31.4472 31.6446 31.886 31.1181 32.5003 31.1181H36.976C37.5026 31.1181 38.0291 31.5569 38.0291 32.1712V72.1015C38.0291 79.0344 34.2555 83.0714 27.6736 83.0714C25.6551 83.0714 24.0755 83.0714 19.5998 80.8774L10.3851 75.6119C8.10336 74.2955 6.69922 71.8382 6.69922 69.2055V28.7486C6.69922 26.1158 8.10336 23.6586 10.3851 22.3422L45.4009 2.06991C47.5949 0.841281 50.5787 0.841281 52.7726 2.06991L87.7884 22.3422C90.0702 23.6586 91.4743 26.1158 91.4743 28.7486V69.2055C91.4743 71.8382 90.0702 74.2955 87.7884 75.6119L52.7726 95.8842C51.6318 96.4107 50.3154 96.674 49.0868 96.674ZM59.8811 68.8544C44.5233 68.8544 41.364 61.8337 41.364 55.8661C41.364 55.3395 41.8028 54.813 42.4171 54.813H46.9805C47.5071 54.813 47.9459 55.164 47.9459 55.6906C48.648 60.3418 50.6664 62.6235 59.9689 62.6235C67.3406 62.6235 70.4999 60.9561 70.4999 57.007C70.4999 54.7252 69.6223 53.0578 58.1259 51.917C48.5602 50.9516 42.5926 48.8454 42.5926 41.2104C42.5926 34.1019 48.5602 29.8895 58.5647 29.8895C69.7979 29.8895 75.3267 33.7509 76.0287 42.1757C76.0287 42.439 75.941 42.7023 75.7655 42.9655C75.5899 43.1411 75.3267 43.3166 75.0634 43.3166H70.4999C70.0611 43.3166 69.6223 42.9655 69.5346 42.5268C68.4815 37.7 65.761 36.1204 58.5647 36.1204C50.4909 36.1204 49.5256 38.9286 49.5256 41.0348C49.5256 43.5799 50.6664 44.3697 61.5485 45.7738C72.3429 47.178 77.4329 49.1964 77.4329 56.7437C77.3451 64.4665 71.0265 68.8544 59.8811 68.8544Z" fill="#539E43"/>
</svg>
