<svg width="97" height="99" viewBox="0 0 97 99" fill="none" xmlns="http://www.w3.org/2000/svg">
<path fill-rule="evenodd" clip-rule="evenodd" d="M90.2475 60.2945C78.9519 62.6011 78.1754 58.8151 78.1754 58.8151C90.1018 41.2961 95.0874 19.0584 90.7849 13.6158C79.0473 -1.2305 58.729 5.79084 58.3899 5.97312L58.2808 5.99246C56.0491 5.53386 53.5516 5.26065 50.7447 5.2153C45.6335 5.13239 41.7566 6.54177 38.8146 8.75031C38.8146 8.75031 2.56871 -6.0315 4.25446 27.3412C4.61308 34.441 14.5338 81.0615 26.3668 66.98C30.6917 61.8308 34.8705 57.4771 34.8705 57.4771C36.9461 58.842 39.4308 59.5382 42.0357 59.2882L42.238 59.1181C42.1751 59.7574 42.2039 60.3828 42.3191 61.123C39.2707 64.4946 40.1665 65.0866 34.0727 66.3284C27.9066 67.5864 31.5289 69.8261 33.8939 70.4114C36.7611 71.1212 43.3942 72.1266 47.8762 65.9156L47.6974 66.6243C48.8918 67.5713 49.7306 72.7844 49.59 77.5101C49.4494 82.2359 49.3555 85.4804 50.2967 88.0146C51.2378 90.5488 52.1758 96.2508 60.1866 94.5516C66.8804 93.1315 70.3491 89.4516 70.8317 83.3132C71.1742 78.9492 71.9491 79.5943 71.9981 75.6928L72.6196 73.8457C73.3364 67.9301 72.7335 66.0216 76.8575 66.9093L77.8597 66.9964C80.895 67.1331 84.8676 66.5131 87.1992 65.4403C92.2198 63.1337 95.1975 59.2826 90.2471 60.2945H90.2475Z" fill="#336791"/>
<path fill-rule="evenodd" clip-rule="evenodd" d="M40.9362 30.5163C39.9186 30.3761 38.9965 30.5059 38.5301 30.8554C38.2676 31.0521 38.1865 31.2799 38.1648 31.4369C38.1062 31.8524 38.4003 32.3116 38.5809 32.5486C39.092 33.2193 39.8388 33.6803 40.5781 33.7819C40.6852 33.7966 40.7916 33.8037 40.8976 33.8037C42.1304 33.8037 43.251 32.8536 43.3498 32.1523C43.4733 31.2739 42.1852 30.6884 40.9362 30.5163Z" fill="#BAC1C2"/>
<path fill-rule="evenodd" clip-rule="evenodd" d="M74.6579 30.5441H74.6577C74.5607 29.8557 73.3229 29.6594 72.1485 29.821C70.9759 29.9828 69.8385 30.5068 69.9335 31.1968C70.0098 31.7334 70.9882 32.6495 72.1469 32.6493C72.2446 32.6493 72.3434 32.6429 72.4429 32.6291C73.2163 32.523 73.7837 32.0369 74.0532 31.7566C74.4639 31.3297 74.7013 30.8536 74.6579 30.5441Z" fill="#BAC1C2"/>
<path fill-rule="evenodd" clip-rule="evenodd" d="M94.0064 60.0324C93.5757 58.7431 92.1895 58.328 89.8862 58.7991C83.0476 60.1963 80.5986 59.2284 79.7942 58.6422C85.1099 50.6256 89.4827 40.9358 91.8417 31.8946C92.9593 27.612 93.5766 23.6348 93.6269 20.3933C93.6826 16.8347 93.0707 14.2202 91.808 12.623C86.7175 6.18386 79.2467 2.72999 70.2032 2.63507C63.9861 2.56594 58.7333 4.14115 57.7149 4.58397C55.5704 4.05601 53.2325 3.7319 50.6876 3.69055C46.0202 3.61586 41.986 4.72202 38.6458 6.97658C37.1949 6.44218 33.4453 5.16795 28.86 4.43681C20.9323 3.17304 14.6328 4.13048 10.1372 7.28336C4.77296 11.0456 2.29655 17.7706 2.77643 27.2712C2.93789 30.4679 4.77745 40.3009 7.68097 49.7179C11.5027 62.1123 15.6568 69.1289 20.028 70.5721C20.5395 70.741 21.1297 70.8593 21.78 70.8593C23.3746 70.8593 25.3293 70.1477 27.3634 67.7271C30.7418 63.7035 33.8962 60.3319 35.0589 59.1068C36.7772 60.02 38.6646 60.5297 40.5956 60.5808C40.599 60.6308 40.6041 60.6809 40.6086 60.7307C40.2213 61.1855 39.9035 61.5841 39.6327 61.9244C38.295 63.6054 38.0166 63.9553 33.7105 64.8332C32.4857 65.0833 29.2321 65.7471 29.1847 68.0045C29.1329 70.4709 33.0301 71.5069 33.4742 71.6167C35.0216 72.0001 36.5123 72.1893 37.9339 72.1893C41.3916 72.1891 44.4342 71.0643 46.8659 68.8877C46.7909 77.6808 47.1614 86.3454 48.2278 88.9854C49.1011 91.1464 51.2351 96.4282 57.9756 96.4278C58.9643 96.4278 60.0532 96.314 61.2508 96.0599C68.2852 94.5667 71.3399 91.4889 72.5217 84.7035C73.1541 81.0771 74.2394 72.4172 74.7495 67.7722C75.8267 68.1048 77.2136 68.2571 78.7127 68.2568C81.8395 68.2568 85.4472 67.5993 87.7098 66.5596C90.2514 65.3912 94.8382 62.5235 94.0064 60.0324ZM77.2543 28.6437C77.2309 30.0151 77.0403 31.2599 76.8381 32.5595C76.6208 33.9571 76.3958 35.402 76.3392 37.1562C76.2833 38.8633 76.4986 40.6381 76.707 42.3543C77.1278 45.8208 77.5597 49.3898 75.8878 52.9115C75.628 52.4547 75.3772 51.9563 75.1472 51.4043C74.9395 50.9057 74.4884 50.1047 73.8639 48.9961C71.4333 44.6813 65.7417 34.5769 68.6553 30.4537C69.523 29.2261 71.7254 27.9646 77.2543 28.6437ZM70.5528 5.41204C78.6557 5.58921 85.0652 8.59004 89.6035 14.3307C93.0842 18.734 89.2514 38.7699 78.1558 56.0548C78.0463 55.917 77.9347 55.7778 77.8192 55.6351C77.7732 55.578 77.7263 55.52 77.6789 55.4613C80.546 50.7736 79.9853 46.1358 79.4863 42.0237C79.2813 40.3362 79.0878 38.7423 79.1369 37.2454C79.1879 35.6581 79.3999 34.2974 79.6047 32.9814C79.8569 31.3595 80.1131 29.6816 80.0423 27.7034C80.0951 27.496 80.1165 27.2508 80.0888 26.9598C79.9083 25.0627 77.7207 19.3858 73.2614 14.2469C70.8225 11.4366 67.2653 8.29127 62.4086 6.16986C64.4976 5.74127 67.3544 5.34157 70.5528 5.41204ZM25.211 65.9554C22.9701 68.6225 21.4225 68.1115 20.9136 67.9436C17.5976 66.8486 13.7503 59.9108 10.3581 48.909C7.42296 39.3894 5.70757 29.817 5.57194 27.1327C5.14326 18.6435 7.22198 12.727 11.7506 9.5477C19.1206 4.37368 31.2376 7.47054 36.1065 9.04131C36.0364 9.10955 35.9637 9.17357 35.8943 9.24293C27.9048 17.2308 28.0943 30.8783 28.1138 31.7123C28.1132 32.0342 28.1403 32.4899 28.1778 33.1168C28.3153 35.4121 28.571 39.6842 27.8877 44.5223C27.2524 49.0181 28.6523 53.4186 31.7278 56.5952C32.0463 56.924 32.3786 57.2328 32.722 57.5233C31.3528 58.9747 28.3777 62.1841 25.211 65.9554ZM33.7489 54.6779C31.27 52.1177 30.1443 48.5562 30.6599 44.906C31.3816 39.7951 31.115 35.344 30.972 32.9528C30.952 32.6182 30.9343 32.325 30.9237 32.0936C32.091 31.0692 37.4999 28.2 41.3571 29.075C43.1176 29.4742 44.1898 30.6606 44.6358 32.7018C46.9438 43.2683 44.9414 47.6726 43.3325 51.2116C43.0008 51.9407 42.6876 52.6298 42.4199 53.343L42.2126 53.8941C41.6876 55.2877 41.1992 56.5832 40.8965 57.8136C38.2616 57.8056 35.698 56.6915 33.7489 54.6779ZM34.1533 68.9284C33.384 68.7381 32.6919 68.4076 32.2859 68.1335C32.625 67.9754 33.2286 67.7607 34.2752 67.5473C39.341 66.5147 40.1231 65.7862 41.8316 63.6388C42.2234 63.1466 42.6674 62.5884 43.2822 61.9086C43.2824 61.9082 43.2826 61.908 43.2829 61.9077C44.1988 60.8927 44.6176 61.0648 45.3773 61.3767C45.993 61.629 46.5926 62.3928 46.8358 63.2335C46.9508 63.6306 47.0801 64.3844 46.6573 64.9706C43.0884 69.9172 37.8881 69.8536 34.1533 68.9284ZM60.664 93.3505C54.4669 94.6649 52.2728 91.5347 50.8268 87.9564C49.8936 85.646 49.435 75.2284 49.7604 63.7241C49.7647 63.571 49.7427 63.4232 49.7 63.2842C49.663 63.0159 49.6059 62.7445 49.5269 62.4713C49.0427 60.7973 47.8636 59.3971 46.4489 58.8167C45.8868 58.5861 44.855 58.1631 43.6152 58.477C43.8797 57.3986 44.3383 56.1811 44.8352 54.8624L45.0438 54.3075C45.2787 53.6822 45.5731 53.0344 45.8848 52.3489C47.5685 48.6458 49.8745 43.574 47.3718 32.116C46.4343 27.8245 43.304 25.7289 38.5584 26.2155C35.7133 26.5069 33.1107 27.6433 31.8125 28.2949C31.5334 28.435 31.2781 28.5701 31.0396 28.7019C31.4018 24.3778 32.7709 16.2969 37.8917 11.1843C41.1157 7.96537 45.4096 6.37571 50.6414 6.46129C60.9496 6.62846 67.5599 11.8654 71.2905 16.2294C74.505 19.99 76.2458 23.778 76.9405 25.8209C71.7162 25.2952 68.1631 26.3162 66.3617 28.8653C62.4432 34.4104 68.5055 45.1732 71.4191 50.3457C71.9534 51.2938 72.4146 52.113 72.5597 52.4611C73.5084 54.7375 74.7367 56.2571 75.6336 57.3666C75.9085 57.7065 76.1753 58.0362 76.378 58.324C74.7958 58.7758 71.9536 59.819 72.2125 65.0344C72.0037 67.6515 70.518 79.9038 69.7635 84.2326C68.7674 89.9515 66.6415 92.0818 60.664 93.3505ZM86.5311 64.0463C84.9132 64.7899 82.2055 65.3476 79.6332 65.4672C76.7921 65.599 75.346 65.1522 75.0058 64.8774C74.8459 61.6274 76.0681 61.2877 77.3614 60.9283C77.5646 60.8716 77.7629 60.8167 77.9542 60.7504C78.0732 60.8463 78.2034 60.9414 78.346 61.0345C80.6296 62.5266 84.7026 62.6876 90.4523 61.5127C90.4735 61.5083 90.4946 61.5043 90.5154 61.5C89.7401 62.2178 88.4129 63.1813 86.5311 64.0463Z" fill="#BAC1C2"/>
</svg>
