<svg width="104" height="94" viewBox="0 0 104 94" fill="none" xmlns="http://www.w3.org/2000/svg">
<path d="M85.3058 30.6784C84.2373 30.307 83.1301 29.9556 81.9901 29.6234C82.1775 28.8512 82.3495 28.0891 82.5024 27.3399C85.0123 15.0382 83.3712 5.12791 77.7675 1.86501C72.3942 -1.26368 63.6066 1.99848 54.7315 9.79716C53.8781 10.5471 53.0223 11.341 52.1668 12.1732C51.5968 11.6226 51.0277 11.0906 50.4601 10.5817C41.1588 2.24284 31.8357 -1.27127 26.2374 2.00107C20.8693 5.13884 19.2795 14.4555 21.5388 26.1139C21.757 27.24 22.012 28.3899 22.3004 29.5591C20.9809 29.9373 19.7071 30.3405 18.4882 30.7694C7.58344 34.6082 0.619141 40.6246 0.619141 46.8651C0.619141 53.3104 8.09532 59.7751 19.4535 63.695C20.3499 64.0043 21.2799 64.2968 22.2384 64.5745C21.9273 65.839 21.6567 67.0782 21.4295 68.2869C19.2753 79.7429 20.9576 88.8395 26.3115 91.9574C31.8415 95.1774 41.1225 91.8676 50.1598 83.8913C50.8741 83.2607 51.5909 82.5921 52.3091 81.8912C53.2399 82.7963 54.1692 83.6528 55.0936 84.4562C63.8473 92.0622 72.493 95.1335 77.8419 92.0069C83.3665 88.7776 85.1619 79.0058 82.8309 67.1167C82.6529 66.2087 82.4457 65.2811 82.2131 64.337C82.8648 64.1424 83.5047 63.9416 84.1286 63.7328C95.9365 59.7825 103.619 53.3965 103.619 46.8651C103.619 40.602 96.4303 34.5451 85.3058 30.6784ZM82.7448 59.5156C82.1815 59.7038 81.6037 59.8858 81.0148 60.0622C79.7112 55.8954 77.9519 51.4646 75.799 46.8868C77.8535 42.418 79.5448 38.0439 80.8118 33.904C81.8655 34.2119 82.8881 34.5366 83.8736 34.8792C93.405 38.1923 99.219 43.0907 99.219 46.8651C99.219 50.8855 92.94 56.1046 82.7448 59.5156ZM78.5144 67.9796C79.5451 73.2368 79.6924 77.9899 79.0096 81.7056C78.3961 85.0444 77.1625 87.2704 75.6371 88.1619C72.3911 90.059 65.4495 87.5931 57.9632 81.0884C57.105 80.3427 56.2406 79.5465 55.3734 78.7039C58.2757 75.4989 61.1763 71.773 64.0072 67.6351C68.9865 67.1889 73.6908 66.4596 77.9569 65.4638C78.167 66.3196 78.3536 67.1589 78.5144 67.9796ZM35.7342 87.8341C32.5628 88.965 30.0369 88.9974 28.5101 88.1084C25.2611 86.2163 23.9105 78.9127 25.7528 69.1154C25.9639 67.9934 26.215 66.8409 26.5045 65.6628C30.7239 66.6049 35.3937 67.2828 40.3849 67.6913C43.2349 71.7404 46.2193 75.4622 49.2268 78.7211C48.5697 79.3616 47.9152 79.9714 47.2643 80.546C43.2681 84.073 39.2634 86.5755 35.7342 87.8341ZM20.8766 59.491C15.8542 57.7577 11.7065 55.505 8.86351 53.0468C6.30887 50.8378 5.01908 48.6447 5.01908 46.8651C5.01908 43.0781 10.6107 38.2478 19.9366 34.9648C21.0682 34.5664 22.2527 34.191 23.482 33.8383C24.7709 38.0716 26.4616 42.4976 28.502 46.9732C26.4352 51.5153 24.7205 56.0118 23.4189 60.2947C22.5426 60.0404 21.6935 59.7727 20.8766 59.491ZM25.857 25.2607C23.9213 15.272 25.2069 7.73697 28.4419 5.84617C31.8877 3.8319 39.5075 6.70383 47.5384 13.904C48.0518 14.3642 48.5671 14.8459 49.084 15.3442C46.0913 18.5888 43.1343 22.2827 40.3096 26.3079C35.4654 26.7612 30.8284 27.4895 26.565 28.4647C26.297 27.376 26.0596 26.3064 25.857 25.2607ZM70.2865 36.338C69.2674 34.5605 68.221 32.825 67.1544 31.1369C70.4407 31.5564 73.5894 32.1132 76.5463 32.7946C75.6585 35.6673 74.5521 38.6708 73.2496 41.7499C72.3154 39.9589 71.3272 38.1531 70.2865 36.338ZM52.1683 18.5194C54.1978 20.7395 56.2303 23.2183 58.2294 25.9077C56.2149 25.8116 54.1755 25.7616 52.1191 25.7616C50.0822 25.7616 48.0578 25.8105 46.0558 25.9049C48.0569 23.2405 50.107 20.7651 52.1683 18.5194ZM33.934 36.3687C32.9159 38.1512 31.946 39.9472 31.0264 41.7466C29.745 38.6783 28.6489 35.661 27.7534 32.7476C30.6922 32.0836 33.826 31.5406 37.0914 31.1291C36.0097 32.8328 34.9548 34.5814 33.934 36.3687ZM37.1855 62.918C33.8117 62.538 30.6308 62.023 27.6928 61.3773C28.6025 58.4119 29.7229 55.3302 31.0313 52.1958C31.9534 53.9939 32.9271 55.7906 33.9514 57.577C34.9948 59.3969 36.0759 61.1796 37.1855 62.918ZM52.29 75.5241C50.2045 73.2521 48.1244 70.7389 46.0928 68.0357C48.065 68.1138 50.0756 68.1538 52.1191 68.1538C54.2186 68.1538 56.2939 68.106 58.3367 68.0142C56.331 70.7662 54.3058 73.2832 52.29 75.5241ZM73.2916 52.036C74.6683 55.2043 75.8289 58.2699 76.7503 61.1848C73.7639 61.8727 70.5395 62.4267 67.1423 62.8385C68.2115 61.1276 69.267 59.3623 70.3041 57.5465C71.3534 55.7093 72.3496 53.8695 73.2916 52.036ZM66.4927 55.3269C64.8826 58.1457 63.2296 60.8366 61.5515 63.3766C58.4951 63.5973 55.3375 63.7109 52.1191 63.7109C48.9138 63.7109 45.796 63.6104 42.7936 63.4136C41.0479 60.8403 39.359 58.1414 37.7591 55.3511C36.1635 52.5684 34.6954 49.7622 33.3647 46.9718C34.695 44.1748 36.1597 41.3654 37.7461 38.5877C39.3368 35.8026 41.0105 33.1175 42.7401 30.5602C45.8033 30.3264 48.9444 30.2044 52.119 30.2044C55.3078 30.2044 58.4531 30.3274 61.5154 30.5632C63.2186 33.1017 64.8813 35.7787 66.4782 38.5642C68.0932 41.381 69.5768 44.1716 70.9185 46.9086C69.5809 49.6926 68.1006 52.5114 66.4927 55.3269ZM75.5696 5.714C79.0188 7.72235 80.3601 15.822 78.193 26.4432C78.0548 27.1209 77.8991 27.8112 77.7301 28.5108C73.4568 27.5152 68.8165 26.7744 63.9582 26.3142C61.128 22.2447 58.1952 18.5451 55.2513 15.3422C56.0428 14.5734 56.8331 13.8403 57.6202 13.1485C65.2244 6.46669 72.3315 3.82857 75.5696 5.714ZM52.1191 37.5783C57.1987 37.5783 61.3167 41.736 61.3167 46.8651C61.3167 51.994 57.1987 56.152 52.1191 56.152C47.0396 56.152 42.9216 51.994 42.9216 46.8651C42.9216 41.736 47.0396 37.5783 52.1191 37.5783Z" fill="#00D8FF" fill-opacity="0.67"/>
</svg>
