<svg width="123" height="101" viewBox="0 0 123 101" fill="none" xmlns="http://www.w3.org/2000/svg">
<path fill-rule="evenodd" clip-rule="evenodd" d="M102.791 7.10827L105.381 10.5183C106.061 11.4183 105.891 12.7083 104.991 13.3883L102.241 15.4783C102.741 16.8083 103.061 18.2283 103.191 19.6783L106.321 20.1083C107.441 20.2583 108.221 21.2983 108.071 22.4183L107.491 26.6683C107.341 27.7883 106.301 28.5783 105.181 28.4183L101.761 27.9483C101.151 29.2783 100.371 30.4983 99.4507 31.5883L101.371 34.1083C102.051 35.0083 101.871 36.2983 100.971 36.9783L97.5607 39.5683C96.6607 40.2483 95.3707 40.0683 94.6907 39.1783L92.6007 36.4283C91.2607 36.9283 89.8507 37.2483 88.3907 37.3783L87.9607 40.5083C87.8107 41.6283 86.7707 42.4083 85.6507 42.2583L81.4007 41.6783C80.2807 41.5283 79.5007 40.4883 79.6507 39.3683L80.1207 35.9483C78.8007 35.3383 77.5707 34.5583 76.4807 33.6483L73.9607 35.5583C73.0607 36.2383 71.7707 36.0683 71.0907 35.1683L68.5007 31.7583C67.8207 30.8583 67.9907 29.5683 68.8907 28.8883L71.6407 26.7983C71.1407 25.4583 70.8207 24.0483 70.6907 22.5983L67.5607 22.1683C66.4407 22.0183 65.6507 20.9783 65.8107 19.8583L66.3907 15.6083C66.5507 14.4883 67.5807 13.7083 68.7007 13.8583L72.1207 14.3283C72.7307 13.0083 73.5107 11.7783 74.4207 10.6883L72.5107 8.16827C71.8307 7.27828 72.0007 5.98827 72.9007 5.30827L76.3107 2.71827C77.2107 2.03827 78.5007 2.20827 79.1807 3.10827L81.2707 5.85827C82.6007 5.35827 84.0207 5.03827 85.4707 4.90827L85.9007 1.77827C86.0507 0.658275 87.0907 -0.131725 88.2107 0.0182747L92.4607 0.598275C93.5807 0.748275 94.3707 1.78827 94.2107 2.90827L93.7407 6.32827C95.0707 6.93827 96.2907 7.71828 97.3907 8.63828L99.9107 6.72827C100.811 6.03827 102.101 6.20827 102.791 7.10827ZM29.6707 50.6183H38.1707C39.7507 50.6183 40.9507 50.7483 41.7807 51.0283C42.6107 51.2983 43.2907 51.7983 43.7907 52.5283C44.3007 53.2683 44.5607 54.1583 44.5607 55.2083C44.5607 56.1183 44.3607 56.9183 43.9707 57.5783C43.5807 58.2483 43.0407 58.7883 42.3607 59.1983C41.9307 59.4583 41.3307 59.6783 40.5707 59.8483C41.1807 60.0583 41.6207 60.2483 41.8907 60.4583C42.0807 60.5983 42.3507 60.8883 42.7007 61.3283C43.0507 61.7683 43.2907 62.1183 43.4107 62.3583L45.8907 67.1283H40.1307L37.4107 62.0983C37.0607 61.4483 36.7607 61.0183 36.4907 60.8283C36.1207 60.5783 35.7007 60.4483 35.2407 60.4483H34.7907V67.1283H29.6707V50.6183ZM47.6507 95.8483H38.1307L36.7607 100.328H28.1807L38.4107 73.1383H47.6107L57.8007 100.328H49.0007L47.6507 95.8483ZM45.8707 89.9583L42.9007 80.1783L39.9207 89.9583H45.8707ZM59.7807 73.1383H73.7607C76.8107 73.1383 79.0907 73.8583 80.6007 75.3083C82.1107 76.7583 82.8707 78.8283 82.8707 81.4983C82.8707 84.2483 82.0407 86.3983 80.3907 87.9483C78.7407 89.4983 76.2107 90.2683 72.8207 90.2683H68.2107V100.328H59.7807V73.1383ZM68.2107 84.7583H70.2807C71.9107 84.7583 73.0607 84.4783 73.7207 83.9083C74.3807 83.3483 74.7107 82.6183 74.7107 81.7483C74.7107 80.8983 74.4207 80.1683 73.8507 79.5783C73.2807 78.9883 72.2007 78.6883 70.6207 78.6883H68.2107V84.7583ZM86.2707 73.1383H94.7007V100.328H86.2707V73.1383ZM34.7907 57.3183H36.9407C37.1707 57.3183 37.6207 57.2383 38.2907 57.0883C38.6307 57.0183 38.9107 56.8483 39.1207 56.5683C39.3407 56.2883 39.4407 55.9683 39.4407 55.6083C39.4407 55.0783 39.2707 54.6583 38.9307 54.3783C38.5907 54.0883 37.9607 53.9483 37.0307 53.9483H34.7907V57.3183ZM46.8707 50.6183H60.5207V54.1383H51.9907V56.7683H59.9007V60.1283H51.9907V63.3783H60.7707V67.1083H46.8707V50.6183ZM61.9807 61.6583L66.8207 61.3583C66.9207 62.1483 67.1407 62.7383 67.4607 63.1483C67.9907 63.8083 68.7407 64.1483 69.7107 64.1483C70.4307 64.1483 71.0007 63.9783 71.3907 63.6383C71.7807 63.2983 71.9807 62.8983 71.9807 62.4483C71.9807 62.0183 71.7907 61.6383 71.4207 61.2983C71.0507 60.9583 70.1807 60.6483 68.8107 60.3383C66.5807 59.8383 64.9907 59.1683 64.0307 58.3383C63.0707 57.5083 62.5907 56.4483 62.5907 55.1583C62.5907 54.3083 62.8407 53.5083 63.3307 52.7583C63.8207 52.0083 64.5607 51.4083 65.5507 50.9783C66.5407 50.5483 67.8907 50.3383 69.6107 50.3383C71.7207 50.3383 73.3207 50.7283 74.4307 51.5183C75.5307 52.3083 76.1907 53.5483 76.4007 55.2683L71.6107 55.5583C71.4807 54.8083 71.2107 54.2583 70.8107 53.9283C70.4007 53.5883 69.8307 53.4183 69.1207 53.4183C68.5307 53.4183 68.0807 53.5483 67.7807 53.7983C67.4807 54.0483 67.3307 54.3583 67.3307 54.7183C67.3307 54.9783 67.4607 55.2083 67.7007 55.4283C67.9407 55.6383 68.5007 55.8483 69.4007 56.0383C71.6307 56.5183 73.2307 57.0083 74.1907 57.4983C75.1507 57.9883 75.8607 58.5983 76.2907 59.3283C76.7307 60.0483 76.9507 60.8683 76.9507 61.7683C76.9507 62.8283 76.6607 63.7983 76.0707 64.6883C75.4907 65.5783 74.6707 66.2583 73.6207 66.7183C72.5707 67.1783 71.2507 67.4083 69.6507 67.4083C66.8507 67.4083 64.9007 66.8683 63.8207 65.7883C62.7407 64.6883 62.1307 63.3183 61.9807 61.6583ZM77.6907 50.6183H93.2007V54.6983H88.0007V67.1183H82.9007V54.6983H77.6907V50.6183ZM60.5307 11.4583C58.7007 11.3183 56.8507 11.3383 55.0207 11.5183C49.3907 12.0583 43.9207 14.1083 39.4007 17.6183C34.1707 21.6683 30.2007 27.7283 28.6707 35.7583L28.1907 38.2683L25.6907 38.7083C23.2407 39.1383 21.0507 39.7283 19.1307 40.4783C17.2707 41.1983 15.6107 42.0883 14.1607 43.1383C13.0007 43.9783 12.0007 44.9183 11.1507 45.9383C8.52067 49.0883 7.30067 53.0383 7.33067 57.0383C7.36067 61.0983 8.68067 65.1983 11.1207 68.5683C12.0307 69.8183 13.0807 70.9683 14.2807 71.9683C15.5007 72.9783 16.8707 73.8183 18.4107 74.4483C19.2807 74.8083 20.2107 75.1083 21.1807 75.3483V82.8383C19.1807 82.4783 17.3407 81.9383 15.6207 81.2283C13.3507 80.2883 11.3407 79.0783 9.57067 77.5983C7.89067 76.1983 6.42067 74.6083 5.17067 72.8783C1.84067 68.2783 0.0406663 62.6583 0.000666338 57.0583C-0.0393337 51.3983 1.72067 45.7683 5.52067 41.2083C6.75067 39.7283 8.20067 38.3683 9.86067 37.1683C11.7907 35.7683 14.0007 34.5883 16.5007 33.6183C18.2207 32.9483 20.0607 32.3883 22.0007 31.9383C24.2007 23.1983 28.8907 16.4683 34.9207 11.7983C40.5607 7.42828 47.3507 4.87827 54.3407 4.20827C58.0107 3.85827 61.7307 4.01827 65.3707 4.69827C65.2907 5.02827 65.2207 5.35827 65.1807 5.69827L65.1707 5.75828C65.1007 6.32828 65.0707 6.89827 65.1007 7.47827C64.3307 7.77828 63.6107 8.18827 62.9607 8.68827L62.9307 8.70827C61.9607 9.43827 61.1407 10.3783 60.5307 11.4583ZM113.441 30.6583C114.001 31.1683 114.541 31.6983 115.071 32.2683C116.141 33.4183 117.151 34.7183 118.101 36.1683C121.301 41.0883 122.941 47.6583 122.871 54.0883C122.801 60.3983 121.101 66.6783 117.621 71.2983C115.351 74.3083 112.441 76.7683 108.951 78.7183C106.561 80.0583 103.871 81.1683 100.941 82.0683V74.3183C102.521 73.7283 103.991 73.0683 105.341 72.3183C107.971 70.8483 110.121 69.0583 111.731 66.9083C114.231 63.5783 115.461 58.8683 115.511 54.0383C115.571 48.9683 114.331 43.8783 111.921 40.1783C111.231 39.1083 110.471 38.1483 109.671 37.2883C109.361 36.9583 109.051 36.6483 108.731 36.3483C108.781 35.8483 108.801 35.3383 108.771 34.8283C109.541 34.5283 110.261 34.1183 110.911 33.6183L110.941 33.5983C111.971 32.8083 112.831 31.8083 113.441 30.6583ZM88.0807 12.7983C92.6907 13.4283 95.9107 17.6783 95.2807 22.2883C94.6507 26.8983 90.4007 30.1283 85.7907 29.4983C81.1807 28.8683 77.9507 24.6183 78.5907 20.0083C79.2307 15.3983 83.4707 12.1683 88.0807 12.7983Z" fill="#0D57AA"/>
</svg>
